# xmcd
#
# Track frame offsets:
#	150
#	27136
#	45286
#	60875
#	69831
#	89806
#	112725
#	129741
#	133739
#	151821
#	167389
#	179286
#	193526
#	221984
#	238912
#	254462
#	269439
#	289149
#
# Disc length: 4105 seconds
#
# Revision: 1
# Processed by: cddbd v1.5.2PL0 Copyright (c) Steve Scherf et al.
# Submitted via: audiograbber 1.83.01
#
DISCID=fd100712
DTITLE=Velsen Noord 2 - Velsen Noord 2
DYEAR=2010
DGENRE=Lokaal
TTITLE0=Velsen Noord 2 - 1. Velsennoord
TTITLE1=Velsen Noord 2 - 2. Ballade van Loek Scholten (Deel 1)
TTITLE2=Velsen Noord 2 - 3. De Mel
TTITLE3=Velsen Noord 2 - 4. Johnny uit Velsen Noord
TTITLE4=Velsen Noord 2 - 5. Het meisje uit de Princestraat
TTITLE5=Velsen Noord 2 - 6. Het Indianendorp 
TTITLE6=Velsen Noord 2 - 7. Ons Velsen Noord
TTITLE7=Velsen Noord 2 - 8. FC Velsenoord scoort
TTITLE8=Velsen Noord 2 - 9. Grenzen
TTITLE9=Velsen Noord 2 - 10. Een jeugdhonk in Velsen Noord
TTITLE10=Velsen Noord 2 - 11. Kinheim
TTITLE11=Velsen Noord 2 - 12. Het gezin Wardenaar
TTITLE12=Velsen Noord 2 - 13. Ode aan Velsen Noord
TTITLE13=Velsen Noord 2 - 14. Jan met de schop
TTITLE14=Velsen Noord 2 - 15. Sail
TTITLE15=Velsen Noord 2 - 16. Henry Lee and Son
TTITLE16=Velsen Noord 2 - 17. De Jongens van Wijsmuller
TTITLE17=Velsen Noord 2 - 18. De Kanaalgravers
EXTD=
EXTT0=
EXTT1=
EXTT2=
EXTT3=
EXTT4=
EXTT5=
EXTT6=
EXTT7=
EXTT8=
EXTT9=
EXTT10=
EXTT11=
EXTT12=
EXTT13=
EXTT14=
EXTT15=
EXTT16=
EXTT17=
PLAYORDER=
